<svg width="22" height="22" viewBox="0 0 22 22" fill="none" xmlns="http://www.w3.org/2000/svg">
<g id="ph:star-thin">
<path id="Vector" d="M20.2261 8.46399C20.1626 8.26368 20.0404 8.08705 19.8754 7.95696C19.7104 7.82688 19.5101 7.74934 19.3005 7.73438L14.0179 7.30469L11.9829 2.37789C11.9028 2.18304 11.7666 2.01639 11.5915 1.89912C11.4165 1.78185 11.2105 1.71924 10.9998 1.71924C10.7891 1.71924 10.5832 1.78185 10.4081 1.89912C10.2331 2.01639 10.0968 2.18304 10.0167 2.37789L7.9817 7.30469L2.69912 7.73438C2.48919 7.7522 2.2892 7.83161 2.12422 7.96264C1.95924 8.09368 1.83662 8.2705 1.77173 8.47094C1.70685 8.67139 1.70258 8.88653 1.75947 9.08938C1.81637 9.29224 1.93189 9.47378 2.09154 9.61125L6.11771 13.084L4.88709 18.2738C4.83555 18.4789 4.8465 18.6948 4.91853 18.8937C4.99056 19.0926 5.12038 19.2654 5.29134 19.39C5.4623 19.5146 5.66659 19.5853 5.87799 19.593C6.08939 19.6006 6.29826 19.5449 6.47779 19.433L10.9998 16.6521L15.5219 19.433C15.6995 19.5453 15.9069 19.6011 16.1169 19.5933C16.3269 19.5855 16.5295 19.5143 16.6983 19.3892C16.8719 19.2664 17.0043 19.094 17.0782 18.8947C17.1521 18.6953 17.1641 18.4783 17.1126 18.272L15.8819 13.0797L19.9081 9.60695C20.0695 9.47019 20.186 9.28812 20.2427 9.08433C20.2994 8.88055 20.2936 8.66443 20.2261 8.46399ZM19.4587 9.08789L15.2752 12.6973C15.2276 12.7384 15.1921 12.7917 15.1727 12.8516C15.1533 12.9115 15.1507 12.9755 15.1652 13.0367L16.4431 18.4327C16.4618 18.5065 16.4578 18.5842 16.4314 18.6555C16.405 18.7269 16.3575 18.7886 16.2953 18.8323C16.2361 18.8765 16.1648 18.9017 16.091 18.9044C16.0172 18.9072 15.9443 18.8874 15.8819 18.8478L11.1803 15.956C11.126 15.9226 11.0636 15.9048 10.9998 15.9048C10.9361 15.9048 10.8736 15.9226 10.8194 15.956L6.11771 18.8478C6.05537 18.8874 5.98245 18.9072 5.90863 18.9044C5.8348 18.9017 5.76356 18.8765 5.70435 18.8323C5.64214 18.7886 5.59469 18.7269 5.56829 18.6555C5.5419 18.5842 5.5378 18.5065 5.55654 18.4327L6.83443 13.0367C6.84892 12.9755 6.84632 12.9115 6.82693 12.8516C6.80753 12.7917 6.77208 12.7384 6.72443 12.6973L2.541 9.08789C2.4832 9.03917 2.44146 8.97414 2.42122 8.90131C2.40098 8.82848 2.40319 8.75124 2.42756 8.67969C2.44997 8.60883 2.49318 8.54634 2.55157 8.50037C2.60996 8.45439 2.68084 8.42704 2.75498 8.42188L8.24982 7.97414C8.31303 7.96912 8.37361 7.94671 8.42487 7.9094C8.47614 7.87209 8.51608 7.82133 8.54029 7.76274L10.6561 2.64086C10.6838 2.57143 10.7317 2.51191 10.7936 2.46997C10.8555 2.42804 10.9285 2.40563 11.0033 2.40563C11.078 2.40563 11.1511 2.42804 11.2129 2.46997C11.2748 2.51191 11.3227 2.57143 11.3504 2.64086L13.4662 7.76274C13.4899 7.82037 13.5288 7.87048 13.5787 7.90771C13.6287 7.94495 13.6878 7.96791 13.7498 7.97414L19.2412 8.41672C19.3154 8.42188 19.3862 8.44923 19.4446 8.49521C19.503 8.54119 19.5462 8.60367 19.5687 8.67453C19.5946 8.74644 19.5979 8.82454 19.5783 8.8984C19.5586 8.97227 19.5169 9.03837 19.4587 9.08789Z" fill="#252931" stroke="#252931" stroke-width="0.4"/>
</g>
</svg>
